HIERARCHY
ROOT Pelvis
{
	OFFSET 0.000000 0.000000 0.000000
	CHANNELS 6 Xposition Yposition Zposition Xrotation Yrotation Zrotation
	JOINT LeftUpLeg_virtual
	{
		OFFSET 0.000000 0.000000 0.000000
		CHANNELS 3 Xrotation Yrotation Zrotation
		JOINT LeftUpLeg
		{
			OFFSET 18.735201 -5.666702 -4.541200
			CHANNELS 3 Xrotation Yrotation Zrotation
			JOINT LeftLeg
			{
				OFFSET -0.021200 -31.938179 0.493100
				CHANNELS 3 Xrotation Yrotation Zrotation
				JOINT LeftFoot
				{
					OFFSET 0.021200 -31.938179 -4.336299
					CHANNELS 3 Xrotation Yrotation Zrotation
					JOINT LeftToeBase
					{
						OFFSET 0.943001 -26.722000 15.023500
						CHANNELS 3 Xrotation Yrotation Zrotation
						End Site
						{
							OFFSET 0 0 0
						}
					}
				}
			}
		}
	}
	JOINT RightUpLeg_virtual
	{
		OFFSET 0.000000 0.000000 0.000000
		CHANNELS 3 Xrotation Yrotation Zrotation
		JOINT RightUpLeg
		{
			OFFSET -18.735201 -5.666702 -4.541200
			CHANNELS 3 Xrotation Yrotation Zrotation
			JOINT RightLeg
			{
				OFFSET 0.018946 -31.938133 0.493100
				CHANNELS 3 Xrotation Yrotation Zrotation
				JOINT RightFoot
				{
					OFFSET -0.018946 -31.938126 -4.336299
					CHANNELS 3 Xrotation Yrotation Zrotation
					JOINT RightToeBase
					{
						OFFSET -0.943001 -26.722004 15.023500
						CHANNELS 3 Xrotation Yrotation Zrotation
						End Site
						{
							OFFSET 0 0 0
						}
					}
				}
			}
		}
	}
	JOINT Hips_virtual
	{
		OFFSET 0.000000 0.000000 0.000000
		CHANNELS 3 Xrotation Yrotation Zrotation
		JOINT Hips
		{
			OFFSET -0.000000 -0.000000 -0.000000
			CHANNELS 3 Xrotation Yrotation Zrotation
			JOINT Spine
			{
				OFFSET 0.000000 10.199997 -0.299500
				CHANNELS 3 Xrotation Yrotation Zrotation
				JOINT Spine1
				{
					OFFSET 0.000000 11.900002 -1.516600
					CHANNELS 3 Xrotation Yrotation Zrotation
					JOINT Spine2
					{
						OFFSET 0.000000 13.600006 -2.842500
						CHANNELS 3 Xrotation Yrotation Zrotation
						JOINT Neck_virtual
						{
							OFFSET 0.000000 0.000000 0.000000
							CHANNELS 3 Xrotation Yrotation Zrotation
							JOINT Neck
							{
								OFFSET 0.000000 9.624100 -2.890100
								CHANNELS 3 Xrotation Yrotation Zrotation
								JOINT Head
								{
									OFFSET 0.000000 14.068802 -1.351900
									CHANNELS 3 Xrotation Yrotation Zrotation
									End Site
									{
										OFFSET 0 0 0
									}
								}
							}
						}
						JOINT LeftShoulder_virtual
						{
							OFFSET 0.000000 0.000000 0.000000
							CHANNELS 3 Xrotation Yrotation Zrotation
							JOINT LeftShoulder
							{
								OFFSET 15.263000 10.923401 -0.547700
								CHANNELS 3 Xrotation Yrotation Zrotation
								JOINT LeftArm
								{
									OFFSET 25.438599 -2.830597 -13.032500
									CHANNELS 3 Xrotation Yrotation Zrotation
									JOINT LeftForeArm
									{
										OFFSET 29.960503 0.000000 0.000000
										CHANNELS 3 Xrotation Yrotation Zrotation
										JOINT LeftHand
										{
											OFFSET 27.849251 0.000000 0.000000
											CHANNELS 3 Xrotation Yrotation Zrotation
											End Site
											{
												OFFSET 0 0 0
											}
										}
									}
								}
							}
						}
						JOINT RightShoulder_virtual
						{
							OFFSET 0.000000 0.000000 0.000000
							CHANNELS 3 Xrotation Yrotation Zrotation
							JOINT RightShoulder
							{
								OFFSET -15.263000 10.923401 -0.547700
								CHANNELS 3 Xrotation Yrotation Zrotation
								JOINT RightArm
								{
									OFFSET -25.438599 -2.830597 -13.032500
									CHANNELS 3 Xrotation Yrotation Zrotation
									JOINT RightForeArm
									{
										OFFSET -29.960503 0.000000 0.000000
										CHANNELS 3 Xrotation Yrotation Zrotation
										JOINT RightHand
										{
											OFFSET -27.849251 0.000000 0.000000
											CHANNELS 3 Xrotation Yrotation Zrotation
											End Site
											{
												OFFSET 0 0 0
											}
										}
									}
								}
							}
						}
					}
				}
			}
		}
	}
}
MOTION
Frames: 12
Frame Time: 0.03333333
-16.161245 87.957977 9.507771 0.000000 0.000000 0.000000 38.705306 -43.945348 14.878865 -82.070768 -10.650253 5.307305 56.457063 1.635298 2.294513 31.906699 6.676216 5.755247 0.000000 0.000000 0.000000 35.953795 -42.815242 12.518270 -28.010218 -13.107511 4.944645 39.688515 -31.843933 6.569278 20.297989 -0.563509 8.705423 0.000000 0.000000 0.000000 36.261464 -42.991297 13.118637 -0.897089 0.010038 0.164001 5.105642 2.583335 2.248808 1.559747 10.565529 -4.585246 0.000000 0.000000 0.000000 -6.791593 7.910406 -0.971964 5.962936 -0.890514 -0.993833 0.000000 0.000000 0.000000 1.323309 7.615973 0.920098 2.430624 3.953052 -17.743209 -39.632009 -35.728836 -36.335411 -84.549710 -64.105471 -89.081417 0.000000 0.000000 0.000000 -5.419969 7.836819 -2.408394 -13.706196 -1.384732 11.099160 -153.841501 72.323493 171.858693 -58.607688 62.707844 53.574850 0.000000 0.000000 0.000000 
-15.916494 88.938538 6.062466 0.000000 0.000000 0.000000 39.915916 -45.473671 15.670103 -80.084166 -8.266330 6.180180 56.237554 1.487839 1.849206 30.898304 5.965939 4.348532 0.000000 0.000000 0.000000 36.869877 -44.764206 13.716786 -28.899698 -14.869605 6.176789 40.780126 -33.424292 7.772138 14.862411 -2.603691 8.000248 0.000000 0.000000 0.000000 37.711284 -44.246956 14.073566 -0.882635 -0.059837 0.140372 4.512672 2.558250 2.485057 1.456030 10.655337 -4.675436 0.000000 0.000000 0.000000 -6.535891 8.035812 -0.869862 6.394775 -0.891521 -0.950762 0.000000 0.000000 0.000000 1.615119 7.602913 0.447066 2.632267 4.420283 -17.748272 -39.473432 -35.381408 -36.201164 -84.134161 -64.277196 -88.688435 0.000000 0.000000 0.000000 -5.205514 8.004471 -2.069216 -13.553616 -1.442904 11.345190 -151.670894 72.065934 170.695757 -56.922650 62.113966 51.950723 0.000000 0.000000 0.000000 
-15.479502 90.129837 0.890030 0.000000 0.000000 0.000000 41.366942 -48.340203 16.890534 -77.995617 -5.973625 7.359976 56.376665 0.972994 1.239281 29.453094 2.565612 0.357037 0.000000 0.000000 0.000000 38.475484 -47.785335 15.288619 -31.133542 -17.028382 7.590595 40.524673 -33.551061 8.155432 10.592111 -2.106413 11.264689 0.000000 0.000000 0.000000 39.738150 -46.492507 15.495713 -0.829366 -0.061367 0.149348 4.664856 3.067858 2.783046 1.196506 11.125100 -4.674188 0.000000 0.000000 0.000000 -6.010933 8.397568 -0.849527 6.666787 -0.913630 -0.964644 0.000000 0.000000 0.000000 1.566335 7.978955 0.175101 2.870464 5.346575 -17.498373 -40.165986 -35.983752 -36.599292 -84.544095 -64.574295 -89.340350 0.000000 0.000000 0.000000 -4.771865 8.428420 -1.831378 -13.407871 -1.518207 12.021725 -150.696499 72.314505 169.280692 -56.497207 61.675276 51.744212 0.000000 0.000000 0.000000 
-14.776906 90.805908 -4.993565 0.000000 0.000000 0.000000 42.821099 -51.451381 18.189274 -76.917670 -3.770010 8.975822 57.209077 0.833097 0.278031 27.188975 -1.814943 -4.681032 0.000000 0.000000 0.000000 40.478956 -51.060343 17.008245 -34.845426 -18.683200 7.806365 41.272241 -31.301555 8.057093 11.692705 1.131816 17.861022 0.000000 0.000000 0.000000 41.856574 -49.212510 17.118717 -0.772567 -0.020750 0.179317 5.452609 3.953765 3.067145 0.789700 11.757946 -4.567853 0.000000 0.000000 0.000000 -5.335282 8.828642 -0.962764 6.714447 -0.958647 -1.060640 0.000000 0.000000 0.000000 1.240742 8.597636 0.044371 3.063929 6.542188 -17.060397 -41.543137 -37.273599 -37.371496 -85.789806 -64.868683 -90.943463 0.000000 0.000000 0.000000 -4.252842 8.938366 -1.724159 -13.315761 -1.704525 12.777805 -150.924559 72.835867 167.809237 -57.372722 61.549512 53.024442 0.000000 0.000000 0.000000 
-14.142491 90.549210 -11.174351 0.000000 0.000000 0.000000 43.795897 -53.906565 19.034665 -77.329961 -2.317337 10.633259 58.882118 1.462992 -0.328094 22.384576 -5.230964 -8.536365 0.000000 0.000000 0.000000 42.190526 -53.667860 18.443785 -38.725489 -19.550988 6.089567 44.288371 -28.148702 7.585371 14.451227 4.293383 22.817451 0.000000 0.000000 0.000000 44.200012 -51.919857 18.948956 -0.788471 0.076360 0.170608 6.495905 4.834057 3.175679 0.302335 12.209745 -4.413361 0.000000 0.000000 0.000000 -4.641597 9.204117 -1.162103 6.521027 -1.023284 -1.200916 0.000000 0.000000 0.000000 0.793512 9.189137 -0.074978 3.234842 7.717259 -16.592932 -43.159545 -38.892941 -38.068865 -87.413287 -65.013504 -92.924314 0.000000 0.000000 0.000000 -3.723585 9.335016 -1.774575 -13.268010 -2.105811 13.382175 -151.314836 73.327504 166.219361 -58.981457 61.660380 55.187847 0.000000 0.000000 0.000000 
-13.528800 88.875435 -17.266617 0.000000 0.000000 0.000000 44.004402 -55.421958 19.329365 -79.565454 -2.718712 11.811793 61.421070 2.808988 0.122433 15.243198 -6.905553 -10.091857 0.000000 0.000000 0.000000 43.284548 -55.138259 19.357736 -40.225207 -18.863552 2.670623 48.352835 -26.085616 6.440596 13.474657 3.711060 22.674353 0.000000 0.000000 0.000000 46.394702 -54.295462 20.770245 -0.802294 0.157613 0.129335 7.236692 5.256629 3.164044 -0.296300 12.159115 -4.202534 0.000000 0.000000 0.000000 -4.064462 9.390573 -1.345265 6.141832 -1.126717 -1.309284 0.000000 0.000000 0.000000 0.428721 9.531371 -0.284012 3.383178 8.636584 -16.408611 -44.610397 -40.418741 -38.289176 -88.810313 -64.945988 -94.589937 0.000000 0.000000 0.000000 -3.225375 9.469248 -2.001479 -13.221140 -2.804262 13.572499 -151.302350 73.553979 164.742264 -60.581790 61.835984 57.363740 0.000000 0.000000 0.000000 
-12.753222 85.957581 -23.686089 0.000000 0.000000 0.000000 43.835980 -56.287859 19.546738 -83.347781 -5.090816 12.526532 64.516580 4.106768 1.426082 7.038218 -7.570630 -10.543912 0.000000 0.000000 0.000000 44.027840 -56.103597 20.251509 -38.133489 -16.422406 -1.726158 51.042588 -25.836268 4.275424 7.515661 -0.584573 18.183579 0.000000 0.000000 0.000000 47.980686 -56.386719 22.531510 -0.784565 0.137567 0.069884 7.532800 5.211364 2.935056 -0.958042 11.673966 -3.933474 0.000000 0.000000 0.000000 -3.527223 9.351572 -1.415338 5.724231 -1.259584 -1.348176 0.000000 0.000000 0.000000 0.227524 9.591428 -0.590523 3.526608 9.298153 -16.770341 -45.433073 -41.851585 -37.944071 -89.716748 -64.657453 -95.658083 0.000000 0.000000 0.000000 -2.880304 9.340299 -2.333035 -13.174037 -3.621730 13.308860 -150.842201 73.526782 163.491083 -61.485274 61.956291 58.877931 0.000000 0.000000 0.000000 
-11.898943 82.140549 -30.045105 0.000000 0.000000 0.000000 44.136433 -57.172324 20.612908 -87.571693 -9.104598 12.559833 66.944849 4.451751 3.522568 -1.016358 -8.616567 -12.467669 0.000000 0.000000 0.000000 44.868274 -57.015677 21.663926 -33.117210 -12.346428 -7.196461 50.641966 -26.316418 0.631457 0.267299 -4.973538 12.232738 0.000000 0.000000 0.000000 49.452615 -58.337602 24.851237 -0.756815 0.089718 0.024100 7.423064 4.893931 2.319764 -1.598095 10.967892 -3.684237 0.000000 0.000000 0.000000 -2.915850 9.174173 -1.375387 5.360688 -1.394300 -1.318160 0.000000 0.000000 0.000000 0.203053 9.455345 -0.959030 3.660305 9.738925 -17.629061 -45.258339 -43.275085 -36.994903 -90.475828 -64.159081 -96.523270 0.000000 0.000000 0.000000 -2.650946 9.071516 -2.707665 -13.105434 -4.385799 12.677081 -150.978244 73.608518 163.114411 -61.628606 62.047474 59.675554 0.000000 0.000000 0.000000 
-10.967261 77.830627 -35.450996 0.000000 0.000000 0.000000 46.087910 -58.725277 23.684164 -91.030979 -13.981443 12.180586 68.267174 3.333193 6.244965 -6.557398 -10.632183 -17.729872 0.000000 0.000000 0.000000 46.660448 -58.322644 24.260525 -26.211920 -7.224038 -13.681841 46.519558 -25.604593 -4.419959 -1.320211 -7.055962 9.091086 0.000000 0.000000 0.000000 50.959430 -60.168468 27.949747 -0.727232 0.030709 -0.007911 7.111277 4.572960 1.402354 -2.220758 10.267358 -3.482180 0.000000 0.000000 0.000000 -2.236230 8.975578 -1.359895 5.085819 -1.512272 -1.244374 0.000000 0.000000 0.000000 0.264891 9.313743 -1.336617 3.709600 9.981556 -18.777160 -44.154588 -44.422519 -35.615328 -91.820152 -63.509230 -97.951333 0.000000 0.000000 0.000000 -2.520192 8.809046 -3.068792 -12.989616 -4.960789 11.725824 -152.134240 73.927577 163.710441 -61.355432 62.118276 60.019317 0.000000 0.000000 0.000000 
-10.114465 73.632210 -40.183350 0.000000 0.000000 0.000000 50.073012 -60.902659 28.921087 -92.366322 -19.021710 12.091998 67.859623 1.245652 9.237769 -10.021619 -13.203634 -25.689708 0.000000 0.000000 0.000000 49.691300 -60.280217 28.254884 -18.368689 -2.276800 -20.135744 39.309033 -22.954189 -9.627183 3.897345 -7.375417 9.598538 0.000000 0.000000 0.000000 52.669255 -61.783002 31.595953 -0.750889 0.018531 0.003996 6.845139 4.463394 0.353088 -2.870370 9.713910 -3.326017 0.000000 0.000000 0.000000 -1.526189 8.860012 -1.494423 4.887157 -1.612418 -1.143808 0.000000 0.000000 0.000000 0.315660 9.303671 -1.682580 3.650653 10.128318 -19.884533 -42.512743 -44.997047 -34.124687 -94.339816 -62.739802 -100.496917 0.000000 0.000000 0.000000 -2.620396 8.683316 -3.347298 -12.862856 -5.179331 10.567184 -152.938031 74.247230 163.991722 -61.192457 62.299754 60.399718 0.000000 0.000000 0.000000 
-9.545030 70.084717 -44.864899 0.000000 0.000000 0.000000 55.519090 -63.273506 35.614847 -90.382397 -24.241883 12.757501 64.611739 -1.081588 12.567374 -14.306049 -15.211475 -34.224794 0.000000 0.000000 0.000000 53.764210 -62.349833 33.421348 -10.579182 1.691951 -25.543357 30.409843 -19.562550 -13.659309 9.143929 -8.229546 11.041614 0.000000 0.000000 0.000000 54.852962 -63.185718 35.510502 -0.773245 0.058090 0.023427 6.640757 4.509301 -0.586960 -3.506252 9.269062 -3.213725 0.000000 0.000000 0.000000 -0.913449 8.864301 -1.843036 4.736397 -1.682214 -1.010600 0.000000 0.000000 0.000000 0.385721 9.402457 -1.959008 3.493300 10.124687 -20.600392 -40.794483 -44.723577 -32.822768 -98.133351 -61.893508 -104.226952 0.000000 0.000000 0.000000 -2.922937 8.748009 -3.537272 -12.723601 -4.911180 9.474301 -151.712599 74.313879 162.621449 -62.056599 62.870279 61.669792 0.000000 0.000000 0.000000 
-9.337591 67.604202 -49.642860 0.000000 0.000000 0.000000 61.764233 -65.316990 42.784831 -84.659710 -28.839340 15.385264 57.869331 -3.089882 15.534994 -18.545731 -15.463468 -40.138915 0.000000 0.000000 0.000000 58.172653 -64.136323 38.879305 -4.264123 4.204600 -29.416064 22.709242 -17.073564 -15.569304 8.228123 -11.485588 10.988566 0.000000 0.000000 0.000000 57.129563 -64.426552 39.019723 -0.778827 0.101452 -0.047703 6.506292 4.546502 -1.230980 -3.987090 8.903813 -3.154356 0.000000 0.000000 0.000000 -0.442982 8.940310 -2.317350 4.648144 -1.692803 -0.869622 0.000000 0.000000 0.000000 0.498571 9.546578 -2.170064 3.259503 9.967225 -20.877738 -39.317741 -43.616785 -31.843510 -102.913978 -60.946611 -108.861618 0.000000 0.000000 0.000000 -3.357338 8.897315 -3.643596 -12.541640 -4.278865 8.700589 -148.387444 74.027837 159.699235 -64.658341 63.891031 64.489103 0.000000 0.000000 0.000000 
